<?xml version="1.0" encoding="UTF-8"?>
<!DOCTYPE svg PUBLIC "-//W3C//DTD SVG 1.1//EN" "http://www.w3.org/Graphics/SVG/1.1/DTD/svg11.dtd">
<svg xmlns="http://www.w3.org/2000/svg" version="1.1" width="532px" height="629px" style="shape-rendering:geometricPrecision; text-rendering:geometricPrecision; image-rendering:optimizeQuality; fill-rule:evenodd; clip-rule:evenodd" xmlns:xlink="http://www.w3.org/1999/xlink">
<g><path style="opacity:0.947" fill="#96c21d" d="M 458.5,105.5 C 460.167,105.5 461.833,105.5 463.5,105.5C 463.353,108.443 462.687,111.276 461.5,114C 461.862,115.885 463.029,116.719 465,116.5C 474.933,114.69 484.099,111.024 492.5,105.5C 493.641,107.421 493.808,109.421 493,111.5C 491.207,114.295 489.04,116.795 486.5,119C 468.318,127.06 449.984,134.726 431.5,142C 411.884,151.474 392.551,161.474 373.5,172C 356.157,179.339 338.823,186.673 321.5,194C 298.105,206.453 277.605,222.62 260,242.5C 253.101,252.299 247.767,262.965 244,274.5C 241.332,287.481 242.332,300.148 247,312.5C 252.413,322.994 258.079,333.327 264,343.5C 274.494,365.204 275.161,387.204 266,409.5C 233.54,472.43 199.04,534.097 162.5,594.5C 161.762,590.871 161.929,587.204 163,583.5C 167.447,561.029 172.447,538.696 178,516.5C 183.468,494.92 191.802,474.587 203,455.5C 211.612,437.329 217.612,418.329 221,398.5C 221.846,389.447 221.513,380.447 220,371.5C 214.753,358.762 210.086,345.762 206,332.5C 200.502,310.073 199.169,287.406 202,264.5C 209.211,228.955 229.377,203.789 262.5,189C 293.009,180.906 322.009,169.24 349.5,154C 380.63,142.068 412.297,131.734 444.5,123C 451.664,119.174 456.331,113.341 458.5,105.5 Z"/></g>
<g><path style="opacity:0.958" fill="#96c21d" d="M 216.5,117.5 C 246.571,116.588 261.405,131.255 261,161.5C 257.093,185.745 242.926,196.911 218.5,195C 197.882,187.959 188.049,173.459 189,151.5C 190.284,140.43 195.118,131.264 203.5,124C 207.647,121.26 211.98,119.093 216.5,117.5 Z"/></g>
<g><path style="opacity:0.952" fill="#0099a8" d="M 90.5,153.5 C 106.833,151.342 117.166,158.176 121.5,174C 120.685,177.48 119.018,180.48 116.5,183C 108.527,184.035 100.527,185.035 92.5,186C 87.6643,187.819 84.831,191.319 84,196.5C 81.7431,205.272 79.0765,213.939 76,222.5C 74.0491,229.181 74.0491,235.848 76,242.5C 79.3333,248.5 82.6667,254.5 86,260.5C 87.0813,266.149 88.0813,271.816 89,277.5C 96.8911,263.888 107.391,252.721 120.5,244C 124.966,241.734 129.632,240.067 134.5,239C 141.5,238.667 148.5,238.333 155.5,238C 170.546,215.479 191.546,205.979 218.5,209.5C 192.006,241.774 183.506,278.441 193,319.5C 196.446,337.285 201.446,354.619 208,371.5C 212.139,397.117 207.473,421.117 194,443.5C 191.035,448.43 187.369,452.763 183,456.5C 179.333,444.833 175.667,433.167 172,421.5C 170.068,412.478 170.068,403.478 172,394.5C 174,391.167 176.667,388.5 180,386.5C 184.372,379.269 185.372,371.602 183,363.5C 177.829,349.49 170.829,336.49 162,324.5C 159.385,315.256 157.218,305.923 155.5,296.5C 144.057,302.036 132.057,305.87 119.5,308C 109.476,309.146 99.4757,310.48 89.5,312C 75.7924,314.07 62.7924,312.07 50.5,306C 40.9932,296.162 36.1598,284.328 36,270.5C 32.2287,248.122 35.8954,227.122 47,207.5C 58.9013,187.339 73.4013,169.339 90.5,153.5 Z"/></g>
<g><path style="opacity:0.005" fill="#76be92" d="M 163.5,159.5 C 165.337,159.639 165.67,160.306 164.5,161.5C 163.702,161.043 163.369,160.376 163.5,159.5 Z"/></g>
</svg>
